<?xml version="1.0" standalone="no"?>
<!DOCTYPE svg PUBLIC "-//W3C//DTD SVG 20010904//EN"
 "http://www.w3.org/TR/2001/REC-SVG-20010904/DTD/svg10.dtd">
<svg version="1.0" xmlns="http://www.w3.org/2000/svg"
 width="1024.000000pt" height="1024.000000pt" viewBox="0 0 1024.000000 1024.000000"
 preserveAspectRatio="xMidYMid meet">
<metadata>
Created by potrace 1.14, written by Peter Selinger 2001-2017
</metadata>
<g transform="translate(0.000000,1024.000000) scale(0.100000,-0.100000)"
fill="#000000" stroke="none">
<path d="M2418 10235 c-2 -3 -20 -7 -39 -9 -19 -3 -50 -8 -69 -11 -19 -4 -39
-8 -45 -9 -5 -1 -16 -5 -22 -9 -7 -5 -13 -6 -13 -3 0 11 -176 -57 -255 -97
-127 -65 -231 -143 -337 -251 -59 -60 -171 -210 -191 -256 -7 -14 -14 -27 -17
-30 -6 -5 -71 -148 -75 -165 -1 -5 -5 -17 -8 -25 -5 -12 -27 -88 -32 -110 -30
-135 -30 -80 -30 -4145 0 -2200 4 -4013 8 -4030 5 -16 10 -43 13 -60 2 -16 7
-39 11 -50 4 -11 8 -26 9 -32 6 -35 48 -152 71 -197 94 -188 199 -325 334
-438 24 -21 50 -43 57 -49 28 -23 132 -89 141 -89 5 0 11 -3 13 -8 5 -11 181
-88 184 -80 0 2 7 -2 15 -8 8 -7 30 -15 49 -19 19 -4 39 -10 45 -13 5 -3 18
-7 30 -9 11 -1 58 -9 105 -17 74 -13 439 -15 2790 -13 2446 2 2711 4 2763 18
32 9 59 17 60 17 8 0 95 24 107 29 8 3 20 7 25 8 17 4 160 69 165 75 3 3 16
10 30 17 40 17 182 123 245 181 148 138 264 317 335 517 17 50 31 91 31 93 -1
1 -1 3 0 5 1 5 7 33 13 62 3 17 9 41 13 55 4 14 9 1361 10 2994 l3 2968 -20
-5 c-11 -3 -22 -1 -25 4 -3 4 -16 4 -30 -1 -15 -6 -27 -6 -30 0 -3 5 -15 6
-28 1 -12 -5 -34 -5 -49 0 -16 4 -28 4 -28 -1 0 -6 -10 -6 -25 0 -15 6 -26 6
-30 -1 -4 -5 -11 -6 -17 -3 -14 9 -113 8 -127 -1 -6 -3 -11 -3 -11 2 0 4 -13
8 -30 8 -16 0 -30 -4 -30 -8 0 -5 -5 -5 -10 -2 -15 9 -104 10 -117 2 -7 -4
-14 -3 -18 2 -4 7 -15 7 -30 1 -14 -5 -25 -6 -25 -2 0 4 -38 7 -85 7 -47 0
-85 -3 -85 -7 0 -4 -14 -3 -30 2 -18 5 -30 5 -30 0 0 -6 -10 -6 -23 -1 -13 5
-30 5 -37 1 -8 -5 -21 -5 -30 0 -9 5 -23 4 -32 -1 -10 -6 -19 -6 -23 0 -4 7
-15 7 -30 1 -14 -5 -25 -6 -25 -2 0 8 -102 8 -116 0 -5 -3 -18 -2 -29 2 -11 4
-34 4 -52 -1 -18 -4 -33 -3 -33 1 0 5 -13 5 -30 0 -16 -5 -30 -6 -30 -2 0 4
-38 7 -85 7 -47 0 -85 -2 -85 -5 0 -3 -16 -5 -35 -5 -19 0 -35 2 -35 5 0 3
-38 5 -85 5 -47 0 -85 -3 -85 -7 0 -4 -13 -3 -30 2 -18 5 -30 5 -30 0 0 -6
-10 -6 -25 0 -15 6 -26 6 -30 0 -4 -6 -13 -7 -24 -1 -10 6 -23 6 -31 1 -8 -5
-21 -5 -30 0 -9 5 -23 4 -32 -1 -10 -6 -19 -6 -23 0 -3 7 -15 7 -30 1 -15 -6
-27 -6 -30 0 -3 6 -15 6 -30 0 -14 -5 -25 -6 -25 -2 0 4 -25 7 -55 7 -30 0
-55 -3 -55 -7 0 -4 -11 -3 -25 2 -15 6 -26 6 -30 -1 -4 -5 -11 -7 -16 -4 -14
9 -89 12 -89 3 0 -3 -13 -3 -30 2 -19 5 -30 5 -30 -1 0 -6 -5 -7 -10 -4 -6 4
-41 8 -78 10 -37 2 -80 6 -97 10 -16 4 -37 8 -45 10 -8 2 -16 4 -17 5 -2 2 -6
3 -10 4 -5 1 -25 10 -47 19 -21 9 -40 17 -42 17 -2 0 -28 16 -57 36 -63 44
-157 134 -157 152 0 6 -4 12 -10 12 -10 0 -89 156 -95 188 -2 9 -4 17 -5 17
-3 0 -10 58 -14 128 -3 38 -7 71 -10 74 -3 3 -1 13 4 22 5 10 5 23 0 31 -5 8
-5 21 0 30 5 9 5 22 0 30 -5 8 -5 21 0 30 5 9 5 22 0 30 -5 8 -5 21 0 30 5 9
5 22 0 30 -5 8 -5 21 0 30 5 9 5 22 0 30 -5 8 -5 21 0 30 5 9 5 22 0 30 -5 8
-5 21 0 30 5 9 5 22 0 29 -4 8 -4 27 0 42 5 16 5 29 0 29 -5 0 -5 13 0 30 5
17 6 30 2 30 -8 0 -7 84 1 97 3 5 2 15 -3 23 -4 7 -4 24 0 36 6 14 5 26 0 29
-5 3 -5 18 0 35 5 17 5 32 0 35 -5 3 -6 15 0 29 4 12 4 29 0 36 -5 8 -5 21 0
30 5 9 5 22 0 30 -5 8 -5 21 0 30 5 9 5 22 0 30 -4 7 -4 24 0 36 6 14 5 26 0
29 -5 3 -5 18 0 35 5 17 5 32 0 35 -5 3 -6 15 0 29 4 12 5 29 0 36 -4 7 -5 20
-2 29 7 19 7 63 0 82 -3 9 -2 22 2 29 5 8 5 21 0 30 -5 9 -5 22 0 29 4 8 4 27
0 42 -5 16 -5 29 0 29 5 0 5 13 0 30 -5 17 -5 30 0 30 5 0 5 13 0 28 -4 16 -4
35 1 43 4 8 4 21 -1 29 -5 8 -5 21 0 30 5 9 5 22 0 30 -5 8 -5 21 0 30 5 9 5
22 0 30 -5 8 -5 21 0 30 5 9 5 22 0 29 -4 8 -4 27 0 42 5 16 5 29 0 29 -5 0
-5 13 0 30 5 17 5 30 0 30 -5 0 -5 13 0 30 5 17 5 30 0 30 -5 0 -5 13 0 30 5
17 5 30 0 30 -5 0 -5 13 0 30 5 17 5 30 0 30 -5 0 -5 13 0 30 5 17 5 30 0 30
-5 0 -5 13 0 30 5 17 5 30 0 30 -5 0 -5 13 0 30 5 17 5 30 0 30 -5 0 -5 13 0
30 5 17 5 30 0 30 -5 0 -5 13 0 30 5 17 5 30 0 30 -5 0 -5 13 0 30 5 17 5 30
1 30 -4 0 -6 14 -3 30 l4 30 -1669 0 c-919 0 -1672 -3 -1675 -5z m2892 -3848
c8 -3 34 -8 58 -11 24 -3 48 -8 53 -12 6 -3 25 -8 42 -11 18 -3 70 -21 117
-40 47 -19 93 -37 103 -40 9 -3 17 -9 17 -13 0 -4 10 -10 23 -14 26 -6 147
-85 208 -136 130 -108 247 -251 321 -392 12 -24 21 -46 20 -50 -1 -5 3 -8 8
-8 6 0 10 -7 10 -15 0 -8 4 -23 9 -33 44 -87 83 -237 95 -369 2 -22 7 -46 10
-52 4 -6 4 -11 -1 -11 -9 0 -9 -57 0 -66 4 -4 4 -11 0 -17 -4 -6 -7 -38 -9
-71 -2 -56 -6 -89 -19 -156 -3 -14 -7 -36 -10 -49 -2 -14 -14 -54 -26 -90 -12
-36 -22 -68 -23 -71 0 -3 -19 -45 -43 -93 -89 -182 -202 -323 -362 -451 -74
-60 -194 -136 -215 -136 -7 0 -19 -6 -25 -13 -6 -8 -30 -20 -53 -27 -24 -8
-49 -18 -55 -23 -7 -5 -13 -6 -13 -2 0 4 -6 2 -13 -4 -8 -6 -22 -12 -33 -14
-10 -2 -37 -9 -59 -15 -100 -28 -171 -36 -315 -36 -69 0 -147 2 -175 6 -85 12
-119 18 -140 25 -11 4 -26 8 -32 9 -89 16 -297 113 -398 186 -188 137 -328
305 -425 512 -41 88 -60 138 -59 156 0 3 -5 19 -11 35 -7 17 -14 39 -16 50
-18 90 -27 149 -29 203 -1 34 -4 65 -7 68 -3 3 -2 21 2 40 5 19 4 37 -1 40 -5
3 -6 10 -2 16 3 7 8 30 9 52 3 40 9 80 19 126 3 14 7 36 10 49 9 48 58 184 91
251 19 39 34 75 34 80 0 6 4 10 9 10 5 0 11 8 14 18 13 46 187 251 278 327 39
32 175 124 196 132 10 3 20 9 23 13 8 11 180 82 234 97 72 20 147 35 226 46
37 6 313 0 330 -6z m-830 -3197 c3 -2 15 2 27 8 14 8 24 8 28 2 4 -6 15 -6 30
0 14 5 25 6 25 1 0 -5 15 -6 33 -2 17 4 44 4 60 0 15 -4 27 -3 27 2 0 5 11 4
25 -1 15 -6 25 -6 25 0 0 5 12 5 28 0 16 -4 36 -4 45 1 9 6 18 5 22 0 4 -7 15
-7 30 -1 14 5 25 6 25 1 0 -5 15 -6 33 -2 17 4 44 4 60 0 15 -4 27 -3 27 2 0
5 11 4 25 -1 14 -5 25 -6 25 -2 0 4 23 7 50 7 28 0 50 -3 50 -7 0 -4 14 -3 30
2 19 5 30 5 30 -1 0 -6 5 -7 11 -3 6 3 39 6 74 6 35 0 68 -3 74 -6 6 -4 11 -4
11 1 0 4 16 8 35 8 19 0 35 -4 35 -8 0 -5 5 -5 11 -1 6 3 39 6 74 6 35 0 68
-3 74 -6 6 -4 11 -3 11 3 0 6 11 6 30 1 18 -5 30 -5 30 0 0 6 10 6 25 0 15 -6
26 -6 30 1 4 5 11 6 17 3 6 -4 43 -8 82 -10 67 -2 120 -8 176 -19 125 -24 150
-29 150 -35 0 -3 9 -6 19 -7 25 -2 146 -45 217 -78 30 -14 59 -25 64 -25 6 0
10 -4 10 -10 0 -5 4 -10 9 -10 10 0 132 -70 141 -80 3 -3 22 -16 43 -29 20
-12 37 -27 37 -32 0 -5 5 -9 11 -9 31 0 265 -242 326 -337 9 -15 20 -30 23
-33 19 -17 127 -222 157 -300 29 -74 54 -149 59 -180 3 -14 8 -34 11 -45 4
-11 8 -28 9 -37 1 -10 2 -19 4 -20 6 -9 20 -120 26 -208 3 -36 5 -69 5 -75 4
-52 -27 -169 -53 -201 -39 -48 -67 -74 -106 -98 -49 -31 -158 -57 -190 -45
-12 5 -24 4 -27 -1 -3 -6 -15 -6 -30 0 -15 6 -25 6 -25 0 0 -5 -12 -5 -30 0
-17 5 -32 5 -35 0 -3 -5 -16 -5 -30 0 -15 6 -27 6 -30 0 -3 -6 -15 -6 -30 0
-15 6 -27 6 -30 0 -3 -6 -15 -6 -30 0 -15 6 -25 6 -25 0 0 -5 -12 -5 -30 0
-17 5 -32 5 -35 0 -3 -5 -16 -5 -30 0 -15 6 -27 6 -30 0 -3 -6 -15 -6 -30 0
-15 6 -27 6 -30 0 -3 -6 -15 -6 -30 0 -15 6 -25 6 -25 0 0 -5 -12 -5 -30 0
-17 5 -32 5 -35 0 -3 -5 -16 -5 -30 0 -15 6 -27 6 -30 0 -3 -6 -15 -6 -29 0
-13 5 -27 6 -30 3 -9 -9 -66 -9 -66 -1 0 4 -6 5 -14 2 -22 -8 -226 -10 -226
-2 0 4 -6 5 -14 2 -22 -8 -226 -10 -226 -2 0 4 -6 5 -14 2 -22 -8 -226 -10
-226 -2 0 4 -6 5 -14 2 -21 -8 -226 -10 -226 -2 0 4 -13 3 -30 -2 -16 -5 -30
-6 -30 -2 0 8 -89 7 -97 -2 -3 -3 -13 -1 -22 4 -10 5 -23 5 -31 0 -8 -5 -21
-5 -31 0 -9 5 -19 7 -23 3 -8 -9 -126 -9 -126 -1 0 4 -11 3 -25 -2 -15 -6 -26
-6 -30 0 -4 6 -13 7 -24 1 -10 -6 -23 -6 -31 -1 -8 5 -21 5 -30 0 -9 -5 -22
-5 -30 0 -8 5 -18 6 -24 3 -13 -9 -126 -9 -126 -1 0 4 -11 3 -25 -2 -15 -6
-26 -6 -30 0 -4 6 -13 7 -24 1 -10 -6 -23 -6 -31 -1 -8 5 -21 5 -30 0 -9 -5
-22 -5 -30 0 -8 5 -18 6 -24 3 -13 -9 -126 -9 -126 -1 0 4 -11 3 -25 -2 -15
-6 -26 -6 -30 0 -4 6 -13 7 -24 1 -10 -6 -23 -6 -31 -1 -8 5 -21 5 -30 0 -9
-5 -22 -5 -30 0 -8 5 -18 6 -24 3 -13 -9 -126 -9 -126 -1 0 4 -10 4 -22 0 -26
-9 -75 -8 -84 1 -3 3 -17 2 -30 -3 -14 -6 -26 -6 -29 0 -3 6 -15 6 -30 0 -15
-6 -27 -6 -30 0 -3 6 -15 6 -30 0 -15 -6 -27 -6 -30 0 -4 6 -13 7 -24 1 -9 -5
-23 -6 -31 -1 -7 4 -24 4 -36 0 -14 -6 -26 -5 -29 0 -3 6 -15 6 -30 0 -15 -6
-27 -6 -30 0 -3 6 -15 6 -30 0 -15 -6 -27 -6 -30 1 -4 6 -13 6 -23 0 -10 -6
-23 -6 -34 0 -10 6 -19 5 -23 -1 -4 -6 -15 -6 -30 0 -17 6 -25 6 -25 -1 0 -6
-4 -8 -8 -5 -5 3 -33 8 -63 11 -30 4 -58 11 -64 16 -5 5 -17 9 -26 9 -9 0 -22
7 -29 15 -7 9 -15 13 -18 10 -9 -9 -82 75 -106 123 -13 26 -27 69 -30 96 -9
64 -9 60 -7 66 1 3 4 39 6 80 12 216 59 393 160 605 24 51 49 96 55 100 6 3 8
11 5 16 -4 5 -1 9 4 9 6 0 11 7 11 15 0 8 5 15 10 15 6 0 10 7 10 15 0 8 5 15
10 15 6 0 10 7 10 15 0 9 7 18 15 21 8 4 15 13 15 20 0 8 7 17 15 20 8 4 15
10 15 15 0 19 221 249 238 249 5 0 17 9 28 21 10 12 44 37 74 57 30 20 57 40
58 44 2 5 9 8 16 8 7 0 23 9 36 20 21 18 29 22 46 19 4 0 10 4 13 9 15 24 240
113 366 145 94 24 208 40 287 41 27 1 48 4 48 8 0 6 31 -2 50 -12z"/>
<path d="M6399 10209 c-2 -90 -1 -160 4 -165 3 -3 2 -16 -3 -28 -4 -13 -4 -29
0 -36 5 -8 5 -21 0 -30 -5 -9 -5 -22 0 -30 5 -8 5 -21 0 -30 -5 -9 -5 -22 0
-30 4 -7 4 -24 0 -36 -6 -14 -5 -26 0 -29 5 -3 5 -18 0 -35 -5 -17 -5 -32 0
-35 5 -3 6 -15 0 -29 -4 -12 -4 -29 0 -36 5 -8 5 -21 0 -30 -5 -9 -5 -22 0
-30 5 -8 5 -21 0 -30 -5 -9 -5 -22 0 -30 4 -7 4 -24 0 -36 -6 -14 -5 -26 0
-29 5 -3 5 -18 0 -35 -5 -17 -5 -32 0 -35 5 -3 6 -15 0 -29 -4 -12 -4 -29 0
-36 5 -8 5 -21 0 -30 -5 -9 -5 -22 0 -30 5 -8 5 -21 0 -30 -5 -9 -5 -22 0 -30
4 -7 4 -24 0 -36 -6 -14 -5 -26 0 -29 5 -3 5 -18 0 -35 -5 -17 -5 -32 0 -35 5
-3 6 -15 0 -29 -4 -12 -5 -29 0 -36 4 -7 5 -20 2 -29 -3 -9 -5 -31 -4 -51 1
-19 2 -41 2 -47 0 -7 0 -20 0 -28 0 -8 0 -22 0 -30 0 -8 0 -22 0 -30 0 -8 0
-22 0 -30 0 -8 0 -22 0 -30 0 -8 0 -22 0 -30 0 -8 0 -22 0 -30 0 -8 0 -22 0
-30 0 -8 0 -22 0 -30 0 -8 0 -22 0 -30 0 -8 0 -22 0 -30 0 -8 0 -22 0 -30 0
-8 0 -22 0 -30 0 -8 0 -22 0 -30 0 -8 0 -22 0 -30 0 -8 0 -22 0 -30 0 -8 0
-22 0 -30 0 -8 0 -22 0 -30 0 -8 0 -22 0 -30 0 -8 0 -22 0 -30 0 -8 0 -22 0
-30 0 -8 0 -22 0 -30 0 -8 0 -22 0 -30 0 -8 0 -22 0 -30 0 -8 0 -22 0 -30 0
-8 0 -22 0 -30 0 -8 0 -22 0 -30 0 -8 0 -22 0 -30 0 -8 0 -22 0 -30 0 -8 0
-22 0 -30 0 -8 0 -22 0 -30 0 -8 0 -22 0 -30 0 -8 0 -22 0 -30 0 -8 0 -22 0
-30 0 -8 0 -22 0 -30 0 -8 0 -22 0 -30 0 -8 0 -22 0 -30 0 -8 0 -22 0 -30 0
-88 -2 -84 31 -75 16 5 29 5 29 0 0 -4 16 -4 35 0 19 4 35 5 35 1 0 -3 32 -6
70 -6 39 0 70 3 70 7 0 4 12 3 28 -1 15 -4 39 -4 55 0 15 4 27 4 27 -1 0 -4
16 -4 35 0 19 4 35 5 35 1 0 -3 32 -6 70 -6 39 0 70 3 70 7 0 4 12 3 28 -1 15
-4 39 -4 55 0 15 4 27 4 27 -1 0 -4 16 -4 35 0 19 4 35 5 35 1 0 -3 32 -6 70
-6 39 0 70 3 70 7 0 4 12 3 28 -1 15 -4 39 -4 55 0 15 4 27 4 27 -1 0 -4 16
-4 35 0 19 4 35 5 35 1 0 -3 32 -6 70 -6 39 0 70 2 70 5 0 7 99 4 106 -3 4 -3
17 -2 30 3 14 6 26 6 29 0 3 -5 15 -6 28 -1 12 5 34 5 49 0 16 -4 28 -4 28 1
0 5 13 5 30 0 17 -5 30 -5 30 0 0 5 13 5 30 0 17 -5 30 -5 30 0 0 5 13 5 30 0
17 -5 30 -5 30 0 0 5 13 5 30 0 17 -5 30 -5 30 0 0 5 13 5 30 0 17 -5 30 -5
30 0 0 5 13 5 30 0 17 -5 30 -5 30 0 0 5 13 5 30 0 17 -5 30 -5 30 0 0 5 13 5
30 0 17 -5 30 -5 30 0 0 5 13 5 30 0 17 -5 30 -5 30 0 0 5 13 5 30 0 17 -5 30
-5 30 0 0 5 13 5 30 0 17 -5 30 -5 30 0 0 5 13 5 30 0 17 -5 30 -5 30 0 0 5
13 5 30 0 17 -5 30 -5 30 0 0 5 13 5 30 0 17 -5 30 -5 30 0 0 5 13 5 30 0 17
-5 30 -5 30 0 0 5 13 5 30 0 17 -5 30 -5 30 0 0 5 12 5 28 1 26 -7 62 -4 62 5
0 4 -2475 2479 -2523 2523 l-27 24 -1 -24z"/>
</g>
</svg>
